<?xml version="1.0" encoding="UTF-8"?>
<svg version="1.1" xmlns="http://www.w3.org/2000/svg" width="4267" height="1600">
<path d="M0 0 C2.47578734 1.15118501 4.96510441 2.26925494 7.45605469 3.38720703 C38.2207735 17.40263011 66.51673919 36.40898648 92.37011719 58.10205078 C93.32917969 58.87548828 94.28824219 59.64892578 95.27636719 60.44580078 C103.72313036 67.35678883 111.45572706 74.9718667 119.18261719 82.66455078 C119.98617645 83.46034546 119.98617645 83.46034546 120.80596924 84.2722168 C127.802417 91.21535064 134.22186571 98.38299169 140.37011719 106.10205078 C141.30491799 107.2038609 142.24628143 108.30018873 143.19824219 109.38720703 C153.51961787 121.22349431 162.52175615 133.97554702 170.93261719 147.22705078 C171.66532837 148.38068115 171.66532837 148.38068115 172.4128418 149.55761719 C175.36259166 154.28113007 177.9163648 159.10526489 180.37011719 164.10205078 C170.52140606 164.40443483 160.67381348 164.63482171 150.82139111 164.77560902 C146.24521652 164.84321547 141.67223618 164.93474451 137.09790039 165.08276367 C132.67554684 165.22495472 128.25624563 165.30192676 123.83178139 165.33545494 C122.15177667 165.35931538 120.4719231 165.40591835 118.79323387 165.47654152 C106.03424697 165.99153132 106.03424697 165.99153132 101.60281754 162.848629 C97.89474836 159.36386864 95.16108046 155.33182769 92.37011719 151.10205078 C90.99280413 149.33743767 89.60034633 147.58435987 88.18261719 145.85205078 C87.46589844 144.97291016 86.74917969 144.09376953 86.01074219 143.18798828 C77.25571327 132.78701393 67.71125776 122.92243539 57.37011719 114.10205078 C56.34020383 113.18811257 55.3116473 112.27264393 54.28417969 111.35595703 C-5.71707979 58.2742188 -89.43552443 27.65576114 -169.62988281 31.10205078 C-170.63325684 31.14313965 -171.63663086 31.18422852 -172.67041016 31.2265625 C-249.99264498 34.7254579 -324.24427855 63.81705866 -381.62988281 116.10205078 C-382.30712402 116.71757813 -382.98436523 117.33310547 -383.68212891 117.96728516 C-391.75028405 125.33345681 -399.52314542 132.78970615 -406.62988281 141.10205078 C-407.54523253 142.13316929 -408.46199096 143.16303835 -409.37988281 144.19189453 C-458.76873093 200.0263092 -487.59490756 274.72370536 -489.62988281 349.10205078 C-489.65179687 349.86807617 -489.67371094 350.63410156 -489.69628906 351.42333984 C-490.46387304 383.34204034 -486.23630574 414.6853292 -478.23071289 445.53857422 C-477.56535766 448.37735109 -477.09841253 451.22492246 -476.62988281 454.10205078 C-448.09131562 454.06482203 -419.55287355 454.00486994 -391.01441193 453.91814804 C-377.76237292 453.87840316 -364.5103929 453.84598753 -351.25830078 453.83105469 C-339.70266002 453.81801461 -328.14714932 453.79098977 -316.59158182 453.74743772 C-310.47763718 453.72487604 -304.36385263 453.70913693 -298.24986267 453.71016693 C-292.48453514 453.71091666 -286.7195608 453.69284033 -280.95432472 453.66088295 C-278.84861171 453.65242739 -276.74285888 453.65060415 -274.63713646 453.65624809 C-258.10016944 453.69463699 -241.72214632 453.29291139 -228.89941406 441.51220703 C-221.51651334 433.76471862 -219.22624899 423.30302841 -219.35253906 412.89111328 C-219.92442796 407.14000524 -222.06387881 403.42445416 -226.44238281 399.72705078 C-236.10803178 394.79946503 -246.86384431 394.95432468 -257.48535156 394.96020508 C-259.03888084 394.95499344 -259.03888084 394.95499344 -260.62379456 394.94967651 C-262.8569791 394.94236748 -265.09017067 394.93699649 -267.32336426 394.93338585 C-270.87448834 394.92615322 -274.42547954 394.9104355 -277.9765625 394.89204407 C-288.06817776 394.83990152 -298.15971783 394.79167199 -308.25146484 394.77612305 C-314.44234783 394.76596363 -320.63289103 394.73644208 -326.82363892 394.69480324 C-329.16441258 394.68260407 -331.50523445 394.67735137 -333.84603882 394.67960167 C-357.20168056 394.69652639 -380.8298083 392.20835731 -399.07128906 375.92236328 C-411.23585005 363.36672503 -416.23852098 347.32813443 -416.06738281 330.10205078 C-416.06053467 329.02262207 -416.05368652 327.94319336 -416.04663086 326.83105469 C-415.84536338 316.59581193 -414.28090048 306.97094686 -411.62988281 297.10205078 C-411.45328125 296.43028809 -411.27667969 295.75852539 -411.09472656 295.06640625 C-407.06286921 280.25679687 -399.77147873 266.59877373 -389.62988281 255.10205078 C-389.17613281 254.50650391 -388.72238281 253.91095703 -388.25488281 253.29736328 C-377.46497692 239.36040151 -359.60448157 230.49241441 -343.06738281 225.66455078 C-342.26623047 225.42961914 -341.46507812 225.1946875 -340.63964844 224.95263672 C-326.31598573 221.10065571 -311.8144067 220.81290222 -297.09667969 220.875 C-295.19286607 220.87556561 -293.28905202 220.87524465 -291.38523865 220.87411499 C-286.2685415 220.8735463 -281.15194007 220.88522136 -276.03526497 220.89926291 C-270.66881941 220.91185181 -265.30237113 220.91294715 -259.93591309 220.91531372 C-249.79683357 220.92150468 -239.6577977 220.93788292 -229.51873732 220.9580127 C-217.96599245 220.98044631 -206.41324539 220.99138382 -194.86048412 221.00140357 C-171.11692625 221.02225151 -147.37340699 221.05738065 -123.62988281 221.10205078 C-124.41987292 225.39240601 -125.21162023 229.68243522 -126.00366211 233.97241211 C-126.33599476 235.77745586 -126.33599476 235.77745586 -126.6750412 237.61896515 C-128.47653363 247.36905251 -130.4118732 257.08504058 -132.44238281 266.78955078 C-132.99404966 269.43813106 -133.54552376 272.0867508 -134.09672546 274.73542786 C-134.31820763 275.79956838 -134.31820763 275.79956838 -134.54416418 276.8852067 C-134.9060916 278.62415031 -135.26799011 280.36309994 -135.62988281 282.10205078 C-157.89531829 282.82002593 -180.14051884 283.25125835 -202.41724777 283.30128098 C-207.18751058 283.31233056 -211.95771136 283.33263598 -216.72793579 283.35440063 C-230.25821185 283.41518866 -243.788472 283.47054095 -257.31884766 283.50341797 C-264.86593219 283.52183142 -272.41290002 283.55080465 -279.95989859 283.59142268 C-283.92029976 283.61228839 -287.88055585 283.62792141 -291.84101486 283.63022995 C-295.54665173 283.6323954 -299.25198066 283.64845461 -302.95752335 283.67461967 C-304.93686466 283.68507661 -306.91626643 283.68109685 -308.89562988 283.67643738 C-320.11945902 283.77912135 -331.97681306 284.89326883 -341.62988281 291.10205078 C-342.66113281 291.76205078 -343.69238281 292.42205078 -344.75488281 293.10205078 C-350.67396377 298.27516537 -354.25999016 307.40865873 -354.86816406 315.12548828 C-355.03883021 322.08230298 -355.03883021 322.08230298 -353.06738281 328.66455078 C-345.68450439 336.0474292 -336.74566048 337.30620922 -326.67695618 337.38102722 C-325.70123154 337.37847427 -324.7255069 337.37592133 -323.72021484 337.37329102 C-322.66677383 337.37851776 -321.61333282 337.38374451 -320.52796936 337.38912964 C-318.25276289 337.39932493 -315.97753339 337.40514219 -313.70230484 337.40701103 C-310.08372595 337.41069954 -306.46541511 337.42749776 -302.84689331 337.44776917 C-292.56236803 337.50291852 -282.27780287 337.53370837 -271.99316406 337.55834961 C-265.68678245 337.57436399 -259.38058945 337.6047316 -253.07430649 337.64311409 C-250.68969626 337.65464885 -248.30505209 337.66069342 -245.92041397 337.66079521 C-222.08262865 337.66218098 -197.99076384 338.49443076 -178.62988281 354.10205078 C-177.05207031 355.24673828 -177.05207031 355.24673828 -175.44238281 356.41455078 C-162.23986641 369.03028868 -157.73556484 386.19201338 -157.25488281 403.91455078 C-158.09914439 435.95978368 -169.11253235 468.07775539 -192.59863281 490.50830078 C-219.31884294 513.37198574 -250.78674332 516.4327078 -284.68066406 516.32910156 C-287.28397619 516.32853651 -289.88728864 516.32885585 -292.49060059 516.32998657 C-298.06484925 516.33102825 -303.63905059 516.32482744 -309.21328735 516.31351089 C-317.27239371 516.29716046 -325.33147751 516.2920382 -333.39059865 516.28953491 C-346.47037296 516.28517267 -359.55012213 516.27190376 -372.62988281 516.25292969 C-385.32519405 516.23453262 -398.02049842 516.22039492 -410.71582031 516.21191406 C-411.50018357 516.21138862 -412.28454683 516.21086317 -413.09267867 516.2103218 C-417.02814328 516.20771146 -420.96360795 516.20518411 -424.89907265 516.20269799 C-457.47602766 516.18201135 -490.05295186 516.14682623 -522.62988281 516.10205078 C-523.91357343 513.07764282 -525.193774 510.05176924 -526.47338867 507.02563477 C-526.83397118 506.17621056 -527.19455368 505.32678635 -527.56606293 504.45162201 C-530.38862638 497.76944394 -532.93001889 491.059426 -535.19238281 484.16455078 C-535.56459961 483.0332373 -535.93681641 481.90192383 -536.3203125 480.73632812 C-566.12033166 388.21351415 -560.38892405 285.05511556 -511.18066406 178.11914062 C-491.65420875 140.1745229 -465.39154777 106.86785107 -435.37988281 76.72705078 C-434.63536865 75.97786377 -433.89085449 75.22867676 -433.1237793 74.45678711 C-428.45458429 69.80108239 -423.65381222 65.37164019 -418.62988281 61.10205078 C-417.99308594 60.5585498 -417.35628906 60.01504883 -416.70019531 59.45507812 C-340.94730606 -4.74778643 -245.59733348 -35.852851 0 0 Z " fill="#1C5EA3" transform="translate(1179.6298828125,414.89794921875)"/>
<path d="M0 0 C104.28 0 208.56 0 316 0 C329.11389278 32.78473196 337.07068701 67.80634696 340 103 C340.13136353 104.56621094 340.13136353 104.56621094 340.26538086 106.1640625 C341.06461947 116.7388235 341.20177197 127.27433887 341.1875 137.875 C341.18656342 138.77862274 341.18562683 139.68224548 341.18466187 140.61325073 C340.97269526 235.29967105 306.44902942 326.76184792 244 398 C243.22269531 398.88945313 242.44539063 399.77890625 241.64453125 400.6953125 C235.78513059 407.23473899 229.63546388 413.49062274 223.45254517 419.72268677 C222.04273377 421.1444053 220.63690321 422.57006788 219.23120117 423.99584961 C213.13182212 430.10286175 206.74529337 435.62251363 200 441 C198.97254096 441.86349653 197.94913236 442.73189014 196.93359375 443.609375 C140.03090665 492.40854954 66.85403058 520.8779953 -7 530 C-7.93150879 530.11859375 -8.86301758 530.2371875 -9.82275391 530.359375 C-109.77294499 542.52061498 -214.02960252 512.03485747 -293.25073242 450.5871582 C-299.64304948 445.55527542 -305.88290767 440.36238613 -312 435 C-312.88945313 434.22269531 -313.77890625 433.44539063 -314.6953125 432.64453125 C-321.23473899 426.78513059 -327.49062274 420.63546388 -333.72268677 414.45254517 C-335.1444053 413.04273377 -336.57006788 411.63690321 -337.99584961 410.23120117 C-344.10286175 404.13182212 -349.62251363 397.74529337 -355 391 C-355.86349653 389.97254096 -356.73189014 388.94913236 -357.609375 387.93359375 C-362.62464263 382.08549883 -367.281614 376.04086383 -371.8125 369.8125 C-372.35165039 369.07636475 -372.89080078 368.34022949 -373.44628906 367.58178711 C-374.22504395 366.49909546 -374.22504395 366.49909546 -375.01953125 365.39453125 C-375.47432861 364.76393799 -375.92912598 364.13334473 -376.39770508 363.48364258 C-378.79569212 359.76663478 -380.88361602 355.88249176 -383 352 C-372.56011364 351.8143936 -362.12062159 351.67236941 -351.67941952 351.58550262 C-346.83068888 351.54380355 -341.98308938 351.48727468 -337.13500977 351.39648438 C-332.45352178 351.30936553 -327.77311946 351.26168615 -323.09088326 351.24098206 C-321.30740837 351.22623416 -319.52399097 351.19743266 -317.74098015 351.15415955 C-303.76019437 350.82843854 -303.76019437 350.82843854 -299.39625549 353.73301697 C-297.61923118 355.74287897 -296.31472451 357.67104981 -295 360 C-283.07686899 373.58168092 -270.07324632 385.84782133 -255.6484375 396.74121094 C-254.04918304 397.96244257 -252.47714123 399.21905614 -250.90625 400.4765625 C-241.75333491 407.75729041 -232.00492406 413.95744318 -222 420 C-221.34725098 420.39541992 -220.69450195 420.79083984 -220.02197266 421.19824219 C-177.86613205 446.46275814 -129.98276202 461.96441971 -81 466 C-79.75476563 466.11085938 -78.50953125 466.22171875 -77.2265625 466.3359375 C-14.72590714 471.10402873 47.761999 457.3348677 103 428 C103.63921387 427.66178223 104.27842773 427.32356445 104.93701172 426.97509766 C127.6965736 414.8234707 148.62121073 399.48032518 167.66796875 382.11328125 C169.75034736 380.22623463 171.86503064 378.38941767 174 376.5625 C236.18129568 322.29518741 269.71678325 238.26607511 275.75 157.4375 C275.85996024 154.95937156 275.94179864 152.47988395 276 150 C276.02046387 149.22591797 276.04092773 148.45183594 276.06201172 147.65429688 C276.75042295 118.00140997 272.93629296 88.98877317 267 60 C265.57578735 60.00785522 265.57578735 60.00785522 264.12280273 60.01586914 C235.97355873 60.15413831 207.83374882 59.8715345 179.6875 59.5 C178.78135326 59.48804218 177.87520653 59.47608437 176.9416008 59.46376419 C165.62766619 59.31401378 154.31380417 59.15929615 143 59 C142.66360756 60.63472511 142.66360756 60.63472511 142.32041931 62.30247498 C139.54825573 75.67427003 136.51960822 88.98095511 133.44140625 102.28515625 C132.89840479 104.63792878 132.35554143 106.99073318 131.81280518 109.34356689 C130.36428137 115.62063444 128.913319 121.89713582 127.46173477 128.17349625 C126.5599773 132.07341014 125.65891167 135.97348315 124.75814819 139.87362671 C113.58100069 188.26672728 102.31689211 236.63939032 91 285 C69.22 285 47.44 285 25 285 C26.1249947 276.00004239 26.1249947 276.00004239 27.0015564 272.57522583 C27.19944889 271.79209078 27.39734138 271.00895573 27.60123062 270.20208931 C27.81709698 269.36856878 28.03296333 268.53504826 28.25537109 267.67626953 C28.48577969 266.77038527 28.71618828 265.864501 28.95357895 264.9311657 C29.72225465 261.91385023 30.49785745 258.89835998 31.2734375 255.8828125 C31.8269209 253.71584966 32.37995944 251.54877314 32.93258667 249.3815918 C34.4296626 243.51551825 35.93263047 237.65096863 37.43659973 231.78665924 C39.00656736 225.66060976 40.57097835 219.53314206 42.13574219 213.40576172 C44.08588301 205.77085302 46.03656152 198.13608308 47.98986816 190.50198364 C52.62681792 172.37915958 57.25169114 154.25330182 61.8671875 136.125 C62.18136501 134.89103359 62.49554253 133.65706718 62.81924057 132.38570786 C64.05951937 127.51421224 65.2997214 122.64269708 66.53978539 117.77114677 C69.71762549 105.28712606 72.89780485 92.80370161 76.078125 80.3203125 C78.51445313 70.75675781 78.51445313 70.75675781 81 61 C50.64 61 20.28 61 -11 61 C-7.60330491 40.61982946 -3.84076159 20.30116842 0 0 Z " fill="#1C5EA3" transform="translate(1071,636)"/>
<path d="M0 0 C16.17 0 32.34 0 49 0 C59.19389293 19.25513109 59.19389293 19.25513109 62.8125 27 C68.05609911 38.0859113 73.42749937 49.10727171 78.8125 60.125 C84.58794061 71.94619719 90.35354176 83.77153195 96.0625 95.625 C101.8692118 107.6798544 107.72344456 119.71111109 113.58816528 131.73782349 C120.08273764 145.05632819 126.55765532 158.38420584 133.01318359 171.72167969 C133.32855072 172.37291306 133.64391785 173.02414642 133.96884155 173.69511414 C134.81027267 175.43273896 135.65124904 177.17058396 136.4921875 178.90844727 C137.97515956 181.94906824 139.48175354 184.97685992 141 188 C142.60186076 183.52779405 143.66986425 179.07570953 144.52455139 174.41374207 C144.66439546 173.6701981 144.80423952 172.92665414 144.94832128 172.16057855 C145.41364673 169.68094459 145.8729443 167.20023321 146.33227539 164.71948242 C146.66554462 162.93692134 146.999198 161.15443204 147.33320618 159.37200928 C148.05041339 155.54036171 148.76499402 151.70823697 149.47755623 147.87572289 C150.60338698 141.82102038 151.73559086 135.76752052 152.86875916 129.71418762 C155.06715662 117.9658364 157.25957958 106.21637458 159.4509201 94.46670532 C162.24371391 79.49213799 165.03757108 64.51777437 167.8401317 49.54503137 C168.9673876 43.521339 170.09076576 37.49693999 171.211218 31.47197855 C171.90698953 27.7348655 172.60596478 23.99835701 173.30583 20.26200867 C173.63092009 18.52273248 173.95464687 16.78320087 174.27694702 15.04340553 C174.71519801 12.67869788 175.15819258 10.31492845 175.60243225 7.95133972 C175.73044741 7.25408364 175.85846257 6.55682756 175.99035698 5.8384425 C176.88590904 1.11409096 176.88590904 1.11409096 178 0 C179.65738443 -0.09346915 181.31874644 -0.11744977 182.97875977 -0.11352539 C184.03978409 -0.11344986 185.10080841 -0.11337433 186.19398499 -0.11329651 C187.348134 -0.10813522 188.50228302 -0.10297394 189.69140625 -0.09765625 C190.86638168 -0.0962413 192.04135712 -0.09482635 193.25193787 -0.09336853 C197.02215064 -0.08774992 200.79230504 -0.07519426 204.5625 -0.0625 C207.11132727 -0.0574874 209.66015547 -0.05292408 212.20898438 -0.04882812 C218.47267698 -0.03777444 224.73633247 -0.02062218 231 0 C229.29307819 12.07394263 226.99108944 24.03416725 224.73730469 36.01513672 C224.30322202 38.33122466 223.86932304 40.64734704 223.43559265 42.96350098 C222.26165266 49.22943813 221.08508767 55.49487975 219.90799236 61.76022482 C218.79542173 67.68411587 217.68471102 73.60835544 216.57393602 79.53258337 C214.36856291 91.29434476 212.16117742 103.05572756 209.95263672 114.81689453 C207.8232659 126.15646825 205.69526375 137.49629761 203.56884766 148.83642578 C203.43835072 149.53236182 203.30785379 150.22829785 203.1734024 150.94532286 C203.04310422 151.64020025 202.91280605 152.33507764 202.77855945 153.05101192 C202.51603311 154.45105558 202.25350604 155.85109911 201.99097824 157.2511425 C201.86141949 157.94207083 201.73186074 158.63299916 201.59837596 159.34486472 C199.55550876 170.23899921 197.51130554 181.13288305 195.4669988 192.02674749 C194.61344477 196.57535111 193.76020659 201.12401391 192.90706635 205.67269516 C188.00702152 231.79554825 183.0895184 257.91331323 178 284 C161.83 284 145.66 284 129 284 C117.66678035 262.46688267 117.66678035 262.46688267 114.125 254.875 C108.90372046 243.83002319 103.55213418 232.85086958 98.1875 221.875 C92.41203732 210.05381372 86.64645816 198.22846789 80.9375 186.375 C75.13111374 174.32082142 69.27713633 162.29027606 63.4128418 150.26419067 C56.8893594 136.88607377 50.38540328 123.49863674 43.89892578 110.10253906 C43.58175095 109.44769028 43.26457611 108.79284149 42.93778992 108.1181488 C42.08970943 106.36705241 41.24198416 104.615784 40.39428711 102.86450195 C39.2768876 100.56885348 38.1482788 98.28030674 37 96 C35.39813924 100.47220595 34.33013575 104.92429047 33.47544861 109.58625793 C33.33560454 110.3298019 33.19576048 111.07334586 33.05167872 111.83942145 C32.58635327 114.31905541 32.1270557 116.79976679 31.66772461 119.28051758 C31.33445538 121.06307866 31.000802 122.84556796 30.66679382 124.62799072 C29.94958661 128.45963829 29.23500598 132.29176303 28.52244377 136.12427711 C27.39661302 142.17897962 26.26440914 148.23247948 25.13124084 154.28581238 C22.93284338 166.0341636 20.74042042 177.78362542 18.5490799 189.53329468 C15.75628609 204.50786201 12.96242892 219.48222563 10.1598683 234.45496863 C9.0326124 240.478661 7.90923424 246.50306001 6.788782 252.52802145 C6.09301047 256.2651345 5.39403522 260.00164299 4.69417 263.73799133 C4.36907991 265.47726752 4.04535313 267.21679913 3.72305298 268.95659447 C3.28480199 271.32130212 2.84180742 273.68507155 2.39756775 276.04866028 C2.26955259 276.74591636 2.14153743 277.44317244 2.00964302 278.1615575 C1.11409096 282.88590904 1.11409096 282.88590904 0 284 C-1.65738443 284.09346915 -3.31874644 284.11744977 -4.97875977 284.11352539 C-6.03978409 284.11344986 -7.10080841 284.11337433 -8.19398499 284.11329651 C-9.92520851 284.10555458 -9.92520851 284.10555458 -11.69140625 284.09765625 C-12.86638168 284.0962413 -14.04135712 284.09482635 -15.25193787 284.09336853 C-19.02215064 284.08774992 -22.79230504 284.07519426 -26.5625 284.0625 C-29.11132727 284.0574874 -31.66015547 284.05292408 -34.20898438 284.04882812 C-40.47267698 284.03777444 -46.73633247 284.02062218 -53 284 C-51.42855886 273.08449456 -49.42291604 262.26577015 -47.38330078 251.43017578 C-47.01806589 249.48127531 -46.6530148 247.53234039 -46.28813171 245.58337402 C-45.29973318 240.30699202 -44.30870821 235.03110646 -43.31715631 229.75531626 C-42.26566404 224.15834273 -41.21646632 218.56093903 -40.16696167 212.96359253 C-38.39463852 203.51305727 -36.62070499 194.06282545 -34.84570312 184.61279297 C-33.04841082 175.04404367 -31.25242414 165.47505077 -29.45800781 155.90576172 C-19.71035438 103.92344816 -9.94528222 51.94491561 0 0 Z " fill="#1C5297" transform="translate(3208,637)"/>
<path d="M0 0 C0.80251346 0.00291284 1.60502691 0.00582568 2.43185896 0.00882679 C3.27800872 0.00797237 4.12415848 0.00711794 4.99594915 0.00623763 C7.85350793 0.00458022 10.71100901 0.01010843 13.56856245 0.01555592 C15.60809287 0.01583776 17.64762339 0.01568012 19.68715376 0.01511341 C25.2427113 0.01482532 30.79824745 0.02072393 36.3538 0.02768737 C42.15275761 0.03391897 47.95171565 0.03452455 53.7506761 0.03571278 C64.7402222 0.03882667 75.72975841 0.04704083 86.71930015 0.05706227 C99.22694378 0.06822162 111.73458788 0.07373341 124.24223524 0.0787577 C149.9791903 0.0892234 175.71613656 0.10682395 201.45308393 0.12908131 C201.30346423 1.53820056 201.1518166 2.94710456 200.99934858 4.35591847 C200.91512396 5.14052511 200.83089933 5.92513176 200.74412245 6.73351437 C200.28407884 10.52017906 199.57904568 14.25171569 198.85933393 17.99626881 C198.63195539 19.19837498 198.63195539 19.19837498 198.39998335 20.42476612 C198.08223309 22.10060225 197.76283999 23.77612767 197.44185346 25.45134693 C196.95049151 28.01762095 196.46508297 30.58497064 195.98042768 33.15251881 C195.66957773 34.78800165 195.35839189 36.42342069 195.04683393 38.05876881 C194.90201582 38.8243813 194.7571977 39.58999378 194.60799116 40.37880665 C194.03210724 43.37303852 193.41859686 46.23254253 192.45308393 49.12908131 C141.96308393 49.12908131 91.47308393 49.12908131 39.45308393 49.12908131 C38.79308393 53.41908131 38.13308393 57.70908131 37.45308393 62.12908131 C36.76118487 66.01000164 36.05627624 69.88483784 35.32417768 73.75798756 C35.03233343 75.31428128 35.03233343 75.31428128 34.73459333 76.90201527 C34.32804742 79.06749366 33.9204831 81.23278109 33.51192182 83.39788014 C32.88622205 86.71470356 32.26414302 90.03219161 31.64253706 93.34978443 C31.24496134 95.46505843 30.8471823 97.58029422 30.44917768 99.69548756 C30.26374906 100.68400212 30.07832044 101.67251667 29.88727278 102.69098622 C29.71361692 103.60972019 29.53996107 104.52845417 29.36104292 105.47502857 C29.2094119 106.27965031 29.05778089 107.08427204 28.901555 107.91327626 C28.4795245 109.9984438 27.96906577 112.06515394 27.45308393 114.12908131 C73.98308393 114.12908131 120.51308393 114.12908131 168.45308393 114.12908131 C166.58297966 130.96001972 162.69621887 147.50801475 159.45308393 164.12908131 C112.59308393 164.12908131 65.73308393 164.12908131 17.45308393 164.12908131 C17.12308393 167.42908131 16.79308393 170.72908131 16.45308393 174.12908131 C16.11567173 176.30741013 15.74973003 178.4816579 15.34566206 180.64861256 C15.12873701 181.82262623 14.91181196 182.9966399 14.68831342 184.20622975 C14.45600019 185.43889576 14.22368696 186.67156178 13.98433393 187.94158131 C13.74396406 189.23225514 13.50359419 190.52292897 13.25594038 191.85271412 C12.75089283 194.56268913 12.24298479 197.27210664 11.73286909 199.98113209 C11.07892929 203.45483486 10.43150417 206.9297142 9.78606886 210.40500599 C9.16776544 213.73028139 8.54465611 217.05464923 7.92183393 220.37908131 C7.57336408 222.2523711 7.57336408 222.2523711 7.21785444 224.16350514 C7.00092939 225.31230152 6.78400434 226.46109791 6.56050581 227.64470631 C6.37032881 228.6582317 6.1801518 229.67175709 5.98421186 230.71599537 C5.45308393 233.12908131 5.45308393 233.12908131 4.45308393 235.12908131 C54.94308393 235.12908131 105.43308393 235.12908131 157.45308393 235.12908131 C155.20042218 250.89771358 155.20042218 250.89771358 153.98042768 257.39080006 C153.85245298 258.07414921 153.72447828 258.75749836 153.59262556 259.46155506 C153.3277626 260.87208267 153.06145534 262.28233989 152.7936601 263.69231373 C152.38383547 265.85214663 151.97969732 268.01299307 151.57613081 270.17400318 C149.59186601 280.71273507 149.59186601 280.71273507 148.45308393 284.12908131 C125.43478391 284.22263304 102.41651535 284.29311363 79.3980636 284.33633 C68.70955185 284.35693184 58.02115841 284.38500696 47.3327226 284.43083912 C38.0137887 284.4707797 28.69494052 284.4965314 19.3759234 284.50543529 C14.44417056 284.5106378 9.51266288 284.52281596 4.58098882 284.55200154 C-0.06718971 284.57928481 -4.71502363 284.58750034 -9.36327463 284.58151203 C-11.06314635 284.58260652 -12.76303038 284.59048318 -14.46283251 284.60590321 C-25.04741908 284.69715972 -33.98546529 283.92014176 -43.35941607 278.50408131 C-51.10212244 270.0977144 -53.03678211 262.1867308 -52.83869272 251.04358441 C-52.41902295 241.1946712 -50.19537605 231.49370325 -48.34012896 221.83830982 C-47.88732084 219.4240411 -47.43578225 217.00953399 -46.98540789 214.59481007 C-45.89309625 208.75650103 -44.78752421 202.92079949 -43.67567433 197.08618868 C-42.38067656 190.2869773 -41.1016347 183.48479339 -39.82327985 176.68243676 C-37.54336925 164.55330078 -35.24999309 152.42675156 -32.9485274 140.30168873 C-30.7153745 128.53642378 -28.49062421 116.76961358 -26.27567583 105.00090748 C-26.13883944 104.27386254 -26.00200305 103.54681761 -25.8610201 102.797741 C-25.3110063 99.87529968 -24.76100068 96.95285683 -24.21101791 94.03040967 C-22.09767702 82.80211836 -19.97808568 71.5750059 -17.85729181 60.34812023 C-17.21681805 56.95755338 -16.5766175 53.56693542 -15.93704826 50.17619783 C-14.48076466 42.45587857 -13.02078039 34.73627496 -11.55449015 27.01784855 C-11.11010018 24.67546626 -10.6670471 22.3328299 -10.22539049 19.98993069 C-9.62508146 16.80685316 -9.01997096 13.62472721 -8.41350847 10.44281727 C-8.23743769 9.5033617 -8.06136691 8.56390612 -7.87996066 7.59598219 C-6.42600023 0.01769505 -6.42600023 0.01769505 0 0 Z " fill="#1B2A76" transform="translate(3491.5469160676003,636.8709186911583)"/>
<path d="M0 0 C18.15 0 36.3 0 55 0 C46.83251669 44.64890877 46.83251669 44.64890877 43.14844131 64.11871338 C42.73223135 66.31880789 42.31657577 68.51900643 41.90109253 70.71923828 C41.6258053 72.17676005 41.35050626 73.63427959 41.07519531 75.09179688 C40.93960016 75.80966873 40.80400501 76.52754059 40.66430092 77.26716614 C39.85017815 81.5746257 39.03176974 85.88124649 38.21051311 90.18735123 C37.81961491 92.24069947 37.43076712 94.29442355 37.0428009 96.34832764 C36.56534729 98.87541738 36.08448329 101.40186598 35.59965515 103.92755127 C35.38815323 105.05199646 35.17665131 106.17644165 34.95874023 107.33496094 C34.77270737 108.31301697 34.5866745 109.291073 34.39500427 110.29876709 C34.0130688 112.91062914 33.92642141 115.36496084 34 118 C39.2380874 113.35211963 44.38713058 108.67353208 49.29296875 103.67578125 C51.11259568 101.88946557 53.00453917 100.22522165 54.9375 98.5625 C57.74576347 96.14382221 60.39970593 93.64100317 63 91 C66.20029522 87.74970017 69.54224576 84.75275755 73 81.78125 C75.08337078 79.9257479 77.04281207 77.98776899 79 76 C82.20029522 72.74970017 85.54224576 69.75275755 89 66.78125 C91.08337078 64.9257479 93.04281207 62.98776899 95 61 C97.55990134 58.40017817 100.1677954 55.93731602 102.9375 53.5625 C105.92801716 50.99334729 108.73116684 48.30682744 111.5 45.5 C114.88241399 42.0711721 118.38070442 38.87951482 122.03515625 35.74609375 C124.81561832 33.27518611 127.39118218 30.6183306 130 27.96875 C132.56305228 25.44574541 135.27345824 23.12437183 138 20.78125 C140.78473876 18.30109205 143.36914046 15.64079434 145.984375 12.984375 C148.59915628 10.41013297 151.34741262 8.01831818 154.140625 5.640625 C156.07320429 4.02425129 156.07320429 4.02425129 157.69769287 1.92584229 C160.80343402 -0.67205942 162.68046129 -0.48384843 166.69628906 -0.45410156 C167.36011597 -0.45468567 168.02394287 -0.45526978 168.70788574 -0.45587158 C170.89433738 -0.45309265 173.07941262 -0.42201328 175.265625 -0.390625 C176.78447729 -0.38316184 178.30333922 -0.37746926 179.82220459 -0.37347412 C183.81403325 -0.35822341 187.80527697 -0.31894723 191.796875 -0.2746582 C195.87231534 -0.23369289 199.94785048 -0.21546046 204.0234375 -0.1953125 C212.01589302 -0.15245175 220.00787368 -0.08420804 228 0 C225.22139325 3.42434775 222.56153023 6.58323871 219.171875 9.421875 C215.08110612 12.91455584 211.15809793 16.5552209 207.25 20.25 C201.51185663 25.65236904 195.74064591 31.01259914 189.921875 36.328125 C186.79356015 39.18877655 183.6763228 42.0610975 180.5625 44.9375 C180.02214111 45.43660889 179.48178223 45.93571777 178.92504883 46.44995117 C177.83035108 47.46120612 176.73570604 48.47251812 175.64111328 49.48388672 C173.46909558 51.49046659 171.29623927 53.49613692 169.12329102 55.50170898 C168.03906892 56.50244158 166.95492206 57.50325569 165.87084961 58.50415039 C163.18851745 60.98061326 160.50534524 63.45615272 157.8203125 65.9296875 C152.00699959 71.28712413 146.21226679 76.66351874 140.4375 82.0625 C134.97254144 87.17110874 129.47800817 92.24500725 123.95703125 97.29296875 C119.18774883 101.65459297 114.44511601 106.0451768 109.69824219 110.43115234 C106.69554787 113.20506173 103.69142932 115.97742819 100.6875 118.75 C99.58723362 119.76561854 98.48697263 120.78124291 97.38671875 121.796875 C96.59910156 122.52390625 95.81148437 123.2509375 95 124 C95.68353365 127.44942532 97.03459668 130.18404812 98.703125 133.26953125 C99.26459229 134.31125488 99.82605957 135.35297852 100.40454102 136.42626953 C101.31804321 138.10245361 101.31804321 138.10245361 102.25 139.8125 C102.88547892 140.98543652 103.5208122 142.15845195 104.15600586 143.33154297 C108.73111944 151.76037218 113.42649378 160.11892238 118.17285156 168.45239258 C122.03890474 175.2542811 125.7925497 182.1105254 129.5 189 C134.20149161 197.73264786 139.01736632 206.39070965 143.91845703 215.01269531 C148.98282103 223.93526339 153.94216657 232.91418663 158.88427734 241.90478516 C162.33799126 248.18569129 165.80842704 254.45624209 169.31640625 260.70703125 C170.01520429 261.95471476 170.71393584 263.20243551 171.41259766 264.45019531 C172.73425706 266.81043115 174.06155443 269.16718391 175.39208984 271.52246094 C175.98328613 272.57852539 176.57448242 273.63458984 177.18359375 274.72265625 C177.70493896 275.64828369 178.22628418 276.57391113 178.76342773 277.52758789 C180 280 180 280 181 284 C159.22 284 137.44 284 115 284 C110.38 275.75 105.76 267.5 101 259 C96.14003162 250.40157477 96.14003162 250.40157477 91.27734375 241.8046875 C87.85714001 235.75332071 84.45754423 229.69051045 81.0625 223.625 C80.48330811 222.59036621 79.90411621 221.55573242 79.30737305 220.48974609 C76.33166215 215.17217424 73.35945043 209.85266899 70.390625 204.53125 C63.36955837 191.95584968 56.26357257 179.43701508 49 167 C44.46503218 170.83819111 40.03223448 174.76066897 35.6875 178.8125 C34.65041111 179.77806552 33.61262785 180.74288568 32.57421875 181.70703125 C32.05479202 182.20295776 31.5353653 182.69888428 31.00019836 183.20983887 C29 185 29 185 26.59281921 186.76367188 C18.5263758 193.01994734 16.88331795 199.20644487 15.3203125 208.98046875 C15.05624782 210.44012041 14.78858057 211.89912433 14.51754761 213.35749817 C13.81600242 217.18529662 13.16287284 221.01978856 12.52020264 224.85784912 C11.87038631 228.68840344 11.17572346 232.51074858 10.484375 236.33398438 C9.46126316 242.01968489 8.46309271 247.70880813 7.48876953 253.40307617 C5.72068769 263.61289344 3.85357153 273.80535657 2 284 C-16.15 284 -34.3 284 -53 284 C-50.70270971 267.91896794 -50.70270971 267.91896794 -49.35292053 260.85493469 C-49.12311128 259.63149134 -49.12311128 259.63149134 -48.88865942 258.38333195 C-48.38449612 255.70331979 -47.87598761 253.02415248 -47.36743164 250.3449707 C-47.00048574 248.39930164 -46.63381483 246.4535807 -46.26739502 244.5078125 C-45.27574034 239.2460641 -44.28031065 233.98503622 -43.28422475 228.72412515 C-42.2287071 223.1454744 -41.17685527 217.56613252 -40.12461853 211.98686218 C-38.12150109 201.3686185 -36.11535066 190.75095035 -34.10800117 180.133506 C-30.55662698 161.34852186 -27.01128557 142.56239809 -23.46544397 123.77636898 C-22.18410781 116.98796246 -20.90227499 110.19964996 -19.62008846 103.41140401 C-15.83859741 83.38997099 -12.05866848 63.36831028 -8.32763672 43.33740234 C-8.12473843 42.24816918 -8.12473843 42.24816918 -7.91774118 41.1369313 C-6.60053172 34.06376417 -5.28681948 26.98995688 -3.97731018 19.9153595 C-3.77585703 18.82920412 -3.57440388 17.74304874 -3.36684608 16.62397957 C-3.00291943 14.66131296 -2.64000502 12.69845821 -2.27838707 10.73536491 C-2.12214174 9.89309412 -1.96589642 9.05082333 -1.80491638 8.18302917 C-1.67223578 7.46444324 -1.53955519 6.7458573 -1.40285397 6.00549603 C-0.99799796 3.9900334 -0.49858612 1.99434447 0 0 Z " fill="#1B428A" transform="translate(1825,637)"/>
<path d="M0 0 C18.15 0 36.3 0 55 0 C52.75004268 15.74970126 52.75004268 15.74970126 51.55137634 22.09031677 C51.41969938 22.79154366 51.28802242 23.49277055 51.15235525 24.21524674 C50.72158218 26.50530357 50.28648319 28.79451426 49.85131836 31.08374023 C49.53710917 32.74925231 49.2231779 34.41481684 48.90950012 36.08042908 C48.23907503 39.63715175 47.56673248 43.19350435 46.89283562 46.74957085 C45.82649136 52.37664809 44.76459773 58.00455982 43.70326233 63.63258362 C42.02460241 72.53133716 40.34307137 81.42954525 38.66026074 90.32751471 C35.6440447 106.27608932 32.63133246 122.22532525 29.62180239 138.17516285 C28.56662642 143.7666317 27.50972865 149.35777152 26.45142543 154.94864929 C25.79380047 158.42429183 25.1374299 161.90017045 24.48136711 165.37610817 C24.17756229 166.98422854 23.87322287 168.59224801 23.56830215 170.20015717 C23.151318 172.39936028 22.7362554 174.59891798 22.32164001 176.79856873 C21.97295065 178.6420724 21.97295065 178.6420724 21.61721706 180.52281857 C18.81577117 196.30516847 18.44748124 211.02209303 27.4140625 224.84375 C32.22910206 231.39030625 38.37849025 233.90816785 46 236 C50.15473079 236.5256975 54.24558581 236.56251382 58.4296875 236.53125 C59.58187775 236.5350769 60.73406799 236.53890381 61.9211731 236.54284668 C64.34312826 236.54555216 66.76511333 236.53828741 69.18701172 236.52148438 C72.85842281 236.50009657 76.52786839 236.52131465 80.19921875 236.546875 C98.45168729 236.56977325 111.75865944 235.21940051 125.75 222.5 C126.4925 221.675 127.235 220.85 128 220 C128.928125 219.071875 129.85625 218.14375 130.8125 217.1875 C133.82990141 213.59312777 135.9805556 209.65052144 138.125 205.5 C138.44960205 204.89051514 138.7742041 204.28103027 139.10864258 203.65307617 C145.19718 191.40644454 147.09989919 177.03470355 149.55932617 163.69775391 C149.89275845 161.91384063 150.22671241 160.1300248 150.56114197 158.34629822 C151.27376374 154.53952855 151.98282452 150.73212004 152.68901634 146.92415237 C153.805126 140.90625649 154.92974423 134.88996929 156.05549622 128.87387085 C158.23694693 117.20967044 160.40978114 105.5438732 162.58176422 93.8779068 C165.35646149 78.97729842 168.13539097 64.07748245 170.92147237 49.17899835 C172.04059625 43.19297493 173.1556253 37.20620732 174.26747358 31.21882844 C174.95672123 27.5112254 175.64914216 23.80422019 176.34241676 20.09736824 C176.66428585 18.37259748 176.98478937 16.64757126 177.30386353 14.92228127 C177.7376346 12.57776314 178.17614386 10.23418105 178.6158905 7.89077759 C178.74254142 7.19966058 178.86919235 6.50854358 178.99968117 5.79648364 C179.88591949 1.11408051 179.88591949 1.11408051 181 0 C182.68801985 -0.09353163 184.37995207 -0.11744791 186.07055664 -0.11352539 C187.15160172 -0.11344986 188.23264679 -0.11337433 189.34645081 -0.11329651 C191.110485 -0.10555458 191.110485 -0.10555458 192.91015625 -0.09765625 C194.10732773 -0.0962413 195.30449921 -0.09482635 196.53794861 -0.09336853 C200.37949066 -0.08774979 204.22097543 -0.07519411 208.0625 -0.0625 C210.65950437 -0.05748741 213.25650965 -0.05292409 215.85351562 -0.04882812 C222.23569743 -0.03777427 228.61784281 -0.02062192 235 0 C233.76768596 9.06714474 232.32675715 18.06296522 230.62084961 27.05249023 C230.27633759 28.88815048 230.27633759 28.88815048 229.92486572 30.76089478 C229.3005925 34.08379124 228.67362906 37.40615739 228.04536891 40.72830081 C227.37612696 44.27061677 226.71032834 47.81358009 226.04408264 51.35646057 C224.91886691 57.33738899 223.79140596 63.31789043 222.66235352 69.2980957 C221.52323898 75.33162221 220.38572688 81.36544713 219.25024414 87.3996582 C219.04289424 88.50151414 219.04289424 88.50151414 218.83135545 89.62562978 C218.27567791 92.57860748 217.72002894 95.53159056 217.16440511 98.48457837 C215.65922509 106.48323197 214.1511726 114.48132394 212.63485718 122.47787476 C212.23146135 124.60576836 211.82808153 126.73366499 211.42472386 128.86156583 C211.16044994 130.25569552 210.89612723 131.64981597 210.63175464 133.04392695 C209.07582745 141.25242308 207.54082366 149.46433755 206.04122448 157.68335247 C205.25862712 161.9667768 204.46535856 166.24818785 203.67062569 170.52937508 C203.31941979 172.43755417 202.97333919 174.34668651 202.63334465 176.25689507 C196.22718966 212.22862164 181.23573048 245.41810619 150.7890625 267.30859375 C134.56834114 278.3174112 116.88532185 285.34599518 97.2890625 287.12109375 C96.38575195 287.20433899 95.48244141 287.28758423 94.55175781 287.37335205 C85.2924271 288.16060281 76.05884497 288.30333421 66.77050781 288.26074219 C64.00042866 288.25000166 61.2309976 288.26073528 58.4609375 288.2734375 C49.1533007 288.2813927 39.93132029 287.97203137 30.66015625 287.12109375 C29.81529663 287.04518005 28.97043701 286.96926636 28.09997559 286.89105225 C10.30690551 285.07992269 -4.32248173 277.61114383 -17 265 C-17.62519531 264.40960937 -18.25039062 263.81921875 -18.89453125 263.2109375 C-33.21920987 248.53056708 -36.91344397 227.06435474 -36.78941345 207.402771 C-36.3801919 195.57095214 -34.52135733 184.24741191 -32.328125 172.62890625 C-31.93108322 170.4797883 -31.53496339 168.33049986 -31.1396637 166.18106079 C-30.02222641 160.12467246 -28.8892225 154.07128414 -27.75314713 148.01836777 C-26.96700507 143.82742393 -26.18592704 139.63554358 -25.40560913 135.44351196 C-21.73237582 115.71314957 -18.03496978 95.98738447 -14.32644254 76.26362818 C-12.75763795 67.9196142 -11.19107733 59.57517931 -9.62463176 51.23072219 C-6.4187741 34.15337216 -3.21003462 17.07656546 0 0 Z " fill="#1C79B8" transform="translate(2928,637)"/>
<path d="M0 0 C4.15857824 0.02527809 8.31717231 0.02737619 12.47581553 0.03210163 C20.32353656 0.04445481 28.17103042 0.07717082 36.01865214 0.11749959 C44.96443037 0.16245809 53.91022038 0.18426442 62.85608375 0.20428133 C81.23316358 0.24591179 99.61003302 0.31611211 117.98693919 0.40557575 C116.86839595 7.45349587 115.74710653 14.50097511 114.62390208 21.54815388 C114.24208331 23.94583948 113.86089453 26.34362549 113.48034739 28.74151325 C112.93341888 32.1870916 112.38422969 35.63230312 111.83459544 39.07745075 C111.57985202 40.68701649 111.57985202 40.68701649 111.31996226 42.3290987 C111.15987178 43.32983418 110.99978129 44.33056965 110.83483958 45.36163044 C110.69494105 46.24099262 110.55504252 47.1203548 110.41090465 48.02636433 C110.02608758 50.18588265 109.54925815 52.28621202 108.98693919 54.40557575 C108.27132445 54.40796411 107.55570971 54.41035246 106.81840968 54.41281319 C89.36428551 54.47208256 71.91030783 54.54770846 54.45633388 54.64129066 C46.01553928 54.68615744 37.57478601 54.72559286 29.13391185 54.7520113 C21.77241167 54.77506552 14.41104329 54.80854569 7.04964781 54.85427731 C3.15585401 54.87810998 -0.73781006 54.89690368 -4.631675 54.90318966 C-8.30565665 54.909286 -11.97930678 54.92944722 -15.6531651 54.95985126 C-17.62606234 54.97267407 -19.59903733 54.97107407 -21.57197499 54.96885395 C-32.86099206 55.08652319 -43.64968852 56.15624945 -52.01306081 64.40557575 C-55.07001427 67.86430024 -56.97280794 71.13252133 -58.70056081 75.40557575 C-59.116928 76.41620075 -59.53329518 77.42682575 -59.96227956 78.46807575 C-61.85173083 83.75011053 -62.2213274 88.69873197 -62.26306081 94.28057575 C-62.28368581 94.96248981 -62.30431081 95.64440388 -62.32556081 96.346982 C-62.36436954 101.44062853 -61.23926561 104.82948811 -59.01306081 109.40557575 C-58.68306081 110.39557575 -58.35306081 111.38557575 -58.01306081 112.40557575 C-56.18998285 113.56172801 -56.18998285 113.56172801 -54.01306081 114.40557575 C-53.38320775 114.68187824 -52.75335469 114.95818073 -52.10441518 115.24285603 C-44.10296026 118.07840379 -36.05145456 117.83127217 -27.67258573 117.81626606 C-24.91603015 117.81173693 -22.16009957 117.82593266 -19.40360951 117.84466267 C-13.54426978 117.8812419 -7.6849978 117.89510817 -1.82556081 117.90557575 C4.95567313 117.91773 11.73659869 117.93965584 18.51769519 117.98557758 C21.20672579 117.99896151 23.89534736 117.9950108 26.58439708 117.99017048 C43.24339461 118.0416692 60.62235721 119.63117009 73.40490794 131.6672945 C88.47786898 148.22894305 89.89814619 168.63366534 89.18225169 189.98223591 C87.43044591 220.68701181 77.42139184 251.17287107 54.95959544 272.831357 C42.84365134 283.32335065 27.55188937 289.53904451 11.45694041 289.52583027 C10.16132686 289.52720493 8.8657133 289.5285796 7.53083873 289.52999592 C6.10751391 289.52645744 4.68418933 289.52282264 3.26086497 289.51910114 C1.75260999 289.51881888 0.24435486 289.51897777 -1.26390004 289.51954365 C-5.34813733 289.51983009 -9.43234513 289.51395809 -13.51657557 289.50696969 C-17.78868737 289.50071068 -22.06079987 289.50013034 -26.33291554 289.49894428 C-34.41818757 289.49583848 -42.50344604 289.48763521 -50.5887121 289.47759479 C-59.79544567 289.46641034 -69.00217989 289.46091733 -78.20891857 289.45589936 C-97.14364033 289.44545197 -116.07834948 289.42786707 -135.01306081 289.40557575 C-134.47526629 281.87635086 -133.66852682 274.4836092 -132.38415456 267.04620075 C-132.23019719 266.13094624 -132.07623982 265.21569172 -131.91761708 264.27270222 C-131.43323372 261.39951937 -130.94203637 258.52755297 -130.45056081 255.65557575 C-130.11742321 253.68690275 -129.78473723 251.71815326 -129.45251393 249.74932575 C-128.6445673 244.96717805 -127.83051509 240.18610701 -127.01306081 235.40557575 C-126.27590935 235.40410919 -125.53875789 235.40264263 -124.7792685 235.40113163 C-106.80807605 235.36401244 -88.83707715 235.30493016 -70.86603761 235.22167301 C-62.17521489 235.18193439 -53.48448205 235.14951568 -44.79357839 235.13457966 C-37.21488657 235.12153622 -29.63639293 235.09450319 -22.05781275 235.05096269 C-18.04831698 235.02840811 -14.03906508 235.01266144 -10.02950025 235.0136919 C-6.24792598 235.0144421 -2.46688957 234.99634894 1.31454539 234.96440792 C3.34846842 234.95195862 5.38248206 234.95894486 7.41642833 234.96671772 C18.52240227 234.84162169 28.93343988 232.54757506 36.98693919 224.40557575 C44.96368625 214.70762805 47.81820286 200.72599826 47.37365794 188.3860445 C46.59620449 182.39415578 44.86047767 177.38038658 40.67443919 172.96807575 C34.53409724 169.3981095 29.80652864 167.96090022 22.68762279 168.00494099 C21.88818248 167.99796192 21.08874217 167.99098286 20.2650764 167.9837923 C17.63840073 167.96390112 15.01212081 167.96431597 12.38537669 167.9641695 C10.54321318 167.95238196 8.70105917 167.93901439 6.85891795 167.9241457 C2.01422934 167.88801831 -2.83037521 167.86778468 -7.67517018 167.85259724 C-15.40654515 167.82775185 -23.13773401 167.78760646 -30.86893773 167.73069668 C-33.55021354 167.71455721 -36.23130941 167.71060658 -38.91262746 167.70768452 C-57.94021296 167.62725377 -75.12712786 165.54782405 -89.70056081 152.21807575 C-102.81599278 138.34364888 -104.51330423 118.92893995 -104.29431081 100.81182575 C-103.36307462 70.3417776 -93.29149376 38.86894408 -71.01306081 17.40557575 C-67.83673627 14.75863864 -64.56165001 12.52302478 -61.01306081 10.40557575 C-60.12231862 9.87190388 -59.23157643 9.338232 -58.31384206 8.78838825 C-40.00127156 -1.25479502 -20.1963326 -0.14378374 0 0 Z " fill="#1B2470" transform="translate(1660.0130608081818,635.5944242477417)"/>
<path d="M0 0 C1.31466221 0.00436926 1.31466221 0.00436926 2.65588325 0.00882679 C4.04148914 0.00754515 4.04148914 0.00754515 5.45508707 0.00623763 C8.57521524 0.00457999 11.6952906 0.01010881 14.81541389 0.01555592 C17.04213405 0.01583775 19.26885431 0.01568013 21.49557441 0.01511341 C27.56144552 0.0148253 33.62729704 0.02072422 39.69316357 0.02768737 C46.02463839 0.03391865 52.35611361 0.03452453 58.68759102 0.03571278 C69.32134835 0.03847248 79.95509791 0.044728 90.58885139 0.05364186 C101.54360363 0.06281527 112.49835391 0.06989645 123.4531092 0.07414967 C124.46530662 0.07454375 124.46530662 0.07454375 125.49795247 0.0749458 C128.88308193 0.0762508 132.2682114 0.07751452 135.65334088 0.0787577 C163.75416499 0.08913117 191.85497683 0.10756992 219.95579475 0.12908131 C216.98579475 16.29908131 214.01579475 32.46908131 210.95579475 49.12908131 C168.38579475 49.62408131 168.38579475 49.62408131 124.95579475 50.12908131 C122.95259163 60.82056568 120.9493885 71.51205006 118.88548225 82.52751881 C117.58216672 89.481959 116.27881762 96.43639287 114.975326 103.39080006 C112.92629341 114.32286019 110.87736577 125.25493987 108.82932991 136.18718678 C99.58893417 185.51082125 90.30127578 234.82524601 80.95579475 284.12908131 C62.80579475 284.12908131 44.65579475 284.12908131 25.95579475 284.12908131 C29.29850926 264.46537688 32.83080429 244.85077901 36.55260271 225.2557593 C37.26328769 221.51088769 37.97105173 217.7654639 38.67915291 214.02010304 C40.02405083 206.9086555 41.37116515 199.79762999 42.71925956 192.68678778 C45.24158394 179.38183397 47.75967716 166.07607881 50.27728981 152.77023274 C50.85831225 149.69955172 51.43954642 146.62891089 52.02095741 143.55830342 C55.11436112 127.22012104 58.19624401 110.87991881 61.23997444 94.53240162 C61.37002207 93.83403636 61.50006971 93.13567109 61.63405818 92.41614324 C62.98015939 85.18622571 64.32325012 77.95575606 65.66285652 70.72463185 C65.87950084 69.55760605 66.09614517 68.39058026 66.31935447 67.18819004 C66.7204784 65.02725652 67.12060894 62.86613826 67.51954216 60.70479923 C67.69548031 59.75769959 67.87141845 58.81059994 68.05268806 57.8348003 C68.20403143 57.01686812 68.35537479 56.19893593 68.51130432 55.35621792 C68.92834846 53.26660204 69.43899349 51.19628637 69.95579475 49.12908131 C41.90579475 49.12908131 13.85579475 49.12908131 -15.04420525 49.12908131 C-14.41891669 42.25090721 -13.75060965 35.72443221 -12.45045525 28.99626881 C-12.29886955 28.19295124 -12.14728386 27.38963368 -11.99110466 26.56197315 C-11.67425221 24.88952641 -11.35486388 23.21755816 -11.03297478 21.5460735 C-10.53881861 18.97606647 -10.05467121 16.404308 -9.571549 13.83220631 C-9.26093472 12.19928268 -8.94975799 10.56646592 -8.63795525 8.93376881 C-8.49313713 8.16410786 -8.34831902 7.39444691 -8.19911247 6.6014629 C-6.93869467 0.1061556 -6.6337848 0.01673536 0 0 Z " fill="#1D94D0" transform="translate(2683.044205248356,636.8709186911583)"/>
<path d="M0 0 C0.95708359 0.00222061 1.91416718 0.00444122 2.9002533 0.00672913 C3.98129837 0.00680466 5.06234344 0.00688019 6.17614746 0.00695801 C7.94018166 0.01469994 7.94018166 0.01469994 9.73985291 0.02259827 C10.93702438 0.02401321 12.13419586 0.02542816 13.36764526 0.02688599 C17.20918732 0.03250472 21.05067208 0.04506041 24.89219666 0.05775452 C27.48920102 0.0627671 30.0862063 0.06733043 32.68321228 0.07142639 C39.06539408 0.08248024 45.44753946 0.0996326 51.82969666 0.12025452 C51.23838936 7.30871885 50.16079958 14.31050436 48.7986908 21.39027405 C48.59302962 22.47805491 48.38736845 23.56583578 48.17547512 24.6865797 C47.49263623 28.29285402 46.80371981 31.89793973 46.11485291 35.50306702 C45.62645389 38.07665499 45.13846692 40.6503212 44.65086365 43.22406006 C43.61069751 48.7115034 42.56759278 54.19838092 41.52235413 59.68486023 C39.88703181 68.26893745 38.25698186 76.85401065 36.62828064 85.43934631 C36.49272581 86.15387101 36.35717098 86.8683957 36.21750844 87.60457265 C35.66819649 90.50010095 35.11889657 93.39563153 34.56966621 96.29117531 C33.74084367 100.6606136 32.91155062 105.02996227 32.08192831 109.39924878 C28.44894066 128.53411731 24.8426964 147.67376304 21.26719666 166.81947327 C21.05503447 167.95495605 20.84287228 169.09043884 20.62428093 170.2603302 C18.63208405 180.92249437 16.64239879 191.58511841 14.6594944 202.24901485 C13.94753557 206.07459305 13.23323286 209.89973087 12.51831055 213.72475624 C12.19054733 215.48156479 11.86388167 217.23857852 11.53839111 218.99580956 C11.09986747 221.36308186 10.65774239 223.72965332 10.21470642 226.09608459 C10.08763841 226.78733492 9.96057039 227.47858524 9.82965183 228.19078255 C8.94372536 232.8921971 8.94372536 232.8921971 7.82969666 235.12025452 C56.33969666 235.12025452 104.84969666 235.12025452 154.82969666 235.12025452 C152.53115269 250.06079031 152.53115269 250.06079031 151.10313416 257.26478577 C150.95059174 258.04544907 150.79804932 258.82611237 150.6408844 259.63043213 C150.16459383 262.06502535 149.68472842 264.49889651 149.20469666 266.93275452 C148.87633168 268.6078377 148.54820512 270.28296764 148.22032166 271.95814514 C147.42618772 276.01272459 146.62885262 280.06666205 145.82969666 284.12025452 C123.44604607 284.21378857 101.06242781 284.28427819 78.67862129 284.3275032 C68.28490278 284.34810879 57.89130586 284.37619108 47.49766541 284.42201233 C38.4362037 284.46194144 29.37483008 284.48770189 20.31328285 284.4966085 C15.5173749 284.50181295 10.7217189 284.51400351 5.92589188 284.54317474 C1.40657567 284.57043987 -3.11238617 284.57867719 -7.63177681 284.57268524 C-9.28530494 284.57378053 -10.93884562 284.58166815 -12.59230232 284.59707642 C-23.97381172 284.69788527 -33.9503225 283.94649855 -42.70155334 275.83509827 C-49.79825183 267.5493253 -49.95046051 257.48732042 -49.17030334 247.12025452 C-48.16507905 239.00939045 -46.50374796 230.99462894 -44.94764709 222.97572327 C-44.49319137 220.57526913 -44.04007831 218.17456048 -43.5881958 215.77362061 C-42.61776294 210.63254356 -41.63873331 205.49318753 -40.65156555 200.3553009 C-39.09094809 192.23222272 -37.54987214 184.10550184 -36.01161194 175.97816467 C-35.48325348 173.187854 -34.95472554 170.39757547 -34.42610168 167.60731506 C-34.29402392 166.91012367 -34.16194615 166.21293229 -34.02586603 165.49461389 C-33.07730706 160.48923095 -32.12568631 155.48443552 -31.17280579 150.47987366 C-27.39040876 130.61006855 -23.65916247 110.73116993 -19.96268106 90.84520841 C-19.29340889 87.24528322 -18.62349716 83.64547705 -17.95367432 80.0456543 C-16.01600676 69.63071764 -14.07847261 59.21575625 -12.14532584 48.79997939 C-10.82055739 41.66223633 -9.49212913 34.52518797 -8.15964699 27.38887978 C-7.71675864 25.01305806 -7.27528974 22.63697125 -6.83530235 20.26061058 C-6.23715718 17.03069373 -5.63428116 13.80169604 -5.03016663 10.57289124 C-4.85477828 9.6193082 -4.67938993 8.66572515 -4.49868679 7.68324566 C-4.33707593 6.82496072 -4.17546507 5.96667578 -4.00895691 5.0823822 C-3.87014162 4.33601439 -3.73132633 3.58964657 -3.58830452 2.82066154 C-2.96253471 0.27506253 -2.65801899 0.14727839 0 0 Z " fill="#1D84C2" transform="translate(2424.1703033447266,636.8797454833984)"/>
<path d="M0 0 C0.95708359 0.00222061 1.91416718 0.00444122 2.9002533 0.00672913 C3.98129837 0.00680466 5.06234344 0.00688019 6.17614746 0.00695801 C7.94018166 0.01469994 7.94018166 0.01469994 9.73985291 0.02259827 C10.93702438 0.02401321 12.13419586 0.02542816 13.36764526 0.02688599 C17.20918732 0.03250472 21.05067208 0.04506041 24.89219666 0.05775452 C27.48920102 0.0627671 30.0862063 0.06733043 32.68321228 0.07142639 C39.06539408 0.08248024 45.44753946 0.0996326 51.82969666 0.12025452 C50.28723157 12.05948252 48.08865489 23.84872324 45.85484314 35.67372131 C45.45197928 37.81862673 45.04937835 39.96358154 44.64701843 42.10858154 C43.56107419 47.89342501 42.47132732 53.67754598 41.38074756 59.4615171 C40.23816769 65.52421984 39.09874156 71.58751536 37.9588623 77.65072632 C36.04692245 87.81797238 34.13254555 97.98475722 32.21665955 108.15126038 C30.00044962 119.91155182 27.78791867 131.67252867 25.57737488 143.43388623 C23.44894341 154.75799082 21.31813326 166.0816465 19.18615913 177.40508461 C18.27913614 182.22267197 17.37291594 187.04040932 16.46732903 191.85826683 C15.40304999 197.519719 14.33668312 203.18077396 13.26867676 208.84152412 C12.87651043 210.92194927 12.48506404 213.00251026 12.09437752 215.08321381 C11.56253142 217.91503816 11.02811313 220.74636498 10.49301147 223.57757568 C10.33775968 224.40751421 10.18250788 225.23745274 10.02255148 226.09254092 C9.43679637 229.17975385 8.82471783 232.135191 7.82969666 235.12025452 C56.33969666 235.12025452 104.84969666 235.12025452 154.82969666 235.12025452 C151.90920279 251.47502017 148.98886158 267.81260988 145.82969666 284.12025452 C123.44604607 284.21378857 101.06242781 284.28427819 78.67862129 284.3275032 C68.28490278 284.34810879 57.89130586 284.37619108 47.49766541 284.42201233 C38.4362037 284.46194144 29.37483008 284.48770189 20.31328285 284.4966085 C15.5173749 284.50181295 10.7217189 284.51400351 5.92589188 284.54317474 C1.40657567 284.57043987 -3.11238617 284.57867719 -7.63177681 284.57268524 C-9.28530494 284.57378053 -10.93884562 284.58166815 -12.59230232 284.59707642 C-24.03241344 284.69840432 -33.93241549 283.93414768 -42.70155334 275.76478577 C-49.87839542 267.72901312 -49.65883251 258.68500293 -49.31618452 248.50916958 C-48.88131283 241.38781536 -47.38425916 234.39641521 -46.02430725 227.40638733 C-45.68453275 225.59852009 -45.34612411 223.79039572 -45.00895691 221.98204041 C-44.09647028 217.10919204 -43.16512038 212.24012606 -42.23017168 207.37154484 C-41.24133095 202.20418693 -40.27037462 197.03346796 -39.29734802 191.8631134 C-37.44459321 182.0327659 -35.57616659 172.20546652 -33.70194852 162.37919116 C-31.60881037 151.40126144 -29.53263432 140.42014894 -27.45822001 129.43866825 C-23.92190689 110.71948399 -20.37050897 92.00321035 -16.80960703 73.28868961 C-14.58766469 61.60879286 -12.37665096 49.92698055 -10.19200158 38.24004793 C-9.8192117 36.24595859 -9.4459715 34.25195408 -9.07258415 32.25797653 C-7.99889957 26.52241633 -6.92853947 20.78628429 -5.86528015 15.04878235 C-5.51058357 13.1516758 -5.15572814 11.25459895 -4.80067444 9.3575592 C-4.64631298 8.5157888 -4.49195152 7.6740184 -4.33291245 6.80673981 C-3.08388751 0.17087538 -3.08388751 0.17087538 0 0 Z " fill="#1C6BAC" transform="translate(2197.1703033447266,636.8797454833984)"/>
<path d="M0 0 C18.15 0 36.3 0 55 0 C52.75001932 14.62487442 52.75001932 14.62487442 51.62107849 20.63259888 C51.49662544 21.2981067 51.37217239 21.96361452 51.24394804 22.64928925 C50.83577158 24.82923562 50.42461919 27.00860878 50.01342773 29.18798828 C49.71511578 30.77778114 49.41699278 32.36760946 49.11904144 33.95746994 C48.31193421 38.2612999 47.50223184 42.56463795 46.69207454 46.86789465 C45.829477 51.4523333 44.96938569 56.03724214 44.10902405 60.62210083 C42.64480596 68.42316147 41.17913934 76.22394871 39.71240234 84.02453613 C37.43912968 96.11462404 35.16847732 108.20520316 32.8984375 120.29589844 C32.52164833 122.30271159 32.14485861 124.30952464 31.76806831 126.31633759 C31.20542578 129.31301456 30.64278604 132.30969205 30.08016026 135.30637217 C28.9628141 141.25752232 27.84522496 147.20862677 26.72744334 153.15969515 C22.49560061 175.69026239 18.27017807 198.22198912 14.06640625 220.7578125 C13.85839323 221.87276722 13.65038021 222.98772194 13.43606377 224.13646317 C11.60570424 233.94802836 9.77702599 243.75990486 7.95137691 253.57234764 C7.32869418 256.91796351 6.70512033 260.26341284 6.08132744 263.60882187 C5.67414689 265.79455505 5.26831153 267.98053485 4.86256409 270.16653442 C4.62754684 271.42674408 4.3925296 272.68695374 4.15039062 273.98535156 C3.95014282 275.06222229 3.74989502 276.13909302 3.5435791 277.24859619 C3.09614315 279.51335763 2.55990248 281.76039009 2 284 C-16.15 284 -34.3 284 -53 284 C-49.02095825 261.47068207 -44.8428771 238.98260256 -40.61876178 216.49820423 C-39.65990488 211.39283135 -38.70248348 206.28718925 -37.74488831 201.18157959 C-35.92577621 191.48376622 -34.10543965 181.78618313 -32.2846337 172.08868766 C-30.25766972 161.29291317 -28.23200459 150.49689513 -26.20649028 139.70084858 C-23.08653869 123.07149885 -19.96589947 106.4422783 -16.84459805 89.81318188 C-11.22542297 59.87626174 -5.61228433 29.93821297 0 0 Z " fill="#1C5B9F" transform="translate(2089,637)"/>
</svg>
